<svg xmlns="http://www.w3.org/2000/svg" viewBox="0 0 512 512">
  <defs>
    <linearGradient id="grad" x1="0%" y1="0%" x2="100%" y2="100%">
      <stop offset="0%" style="stop-color:#2563eb;stop-opacity:1" />
      <stop offset="100%" style="stop-color:#1d4ed8;stop-opacity:1" />
    </linearGradient>
  </defs>
  
  <!-- Background circle -->
  <circle cx="256" cy="256" r="240" fill="url(#grad)"/>
  
  <!-- Face outline -->
  <ellipse cx="256" cy="280" rx="120" ry="140" fill="none" stroke="white" stroke-width="12"/>
  
  <!-- Left eye -->
  <circle cx="210" cy="240" r="20" fill="white"/>
  <circle cx="215" cy="238" r="8" fill="#1e3a8a"/>
  
  <!-- Right eye -->
  <circle cx="302" cy="240" r="20" fill="white"/>
  <circle cx="307" cy="238" r="8" fill="#1e3a8a"/>
  
  <!-- Smile -->
  <path d="M 200 310 Q 256 360 312 310" fill="none" stroke="white" stroke-width="10" stroke-linecap="round"/>
  
  <!-- Scan lines -->
  <line x1="80" y1="200" x2="176" y2="200" stroke="white" stroke-width="4" stroke-opacity="0.6"/>
  <line x1="336" y1="200" x2="432" y2="200" stroke="white" stroke-width="4" stroke-opacity="0.6"/>
  <line x1="80" y1="320" x2="176" y2="320" stroke="white" stroke-width="4" stroke-opacity="0.6"/>
  <line x1="336" y1="320" x2="432" y2="320" stroke="white" stroke-width="4" stroke-opacity="0.6"/>
  
  <!-- Corner brackets -->
  <path d="M 100 140 L 100 100 L 140 100" fill="none" stroke="white" stroke-width="8" stroke-linecap="round" stroke-linejoin="round"/>
  <path d="M 412 140 L 412 100 L 372 100" fill="none" stroke="white" stroke-width="8" stroke-linecap="round" stroke-linejoin="round"/>
  <path d="M 100 412 L 100 452 L 140 452" fill="none" stroke="white" stroke-width="8" stroke-linecap="round" stroke-linejoin="round"/>
  <path d="M 412 412 L 412 452 L 372 452" fill="none" stroke="white" stroke-width="8" stroke-linecap="round" stroke-linejoin="round"/>
</svg>
